<svg id="Layer_1" data-name="Layer 1" xmlns="http://www.w3.org/2000/svg" viewBox="0 0 164.96 111.25"><title>logo_eng</title><path d="M37,36.93A3.29,3.29,0,0,1,33.7,40.2H20.6V22.53H12.95V47.9H33.7a11,11,0,0,0,10.92-11V20.59A11,11,0,0,0,33.7,9.67H12.95v7.65H33.7A3.25,3.25,0,0,1,37,20.59V36.93Z"/><path d="M98.34,74.3A10.89,10.89,0,0,0,87.42,63.38H77.59A11,11,0,0,0,66.66,74.3v1.91h7.65V74.3A3.29,3.29,0,0,1,77.59,71h9.83A3.22,3.22,0,0,1,90.7,74.3v1.09a3.22,3.22,0,0,1-3.28,3.28H80.86v7.65h6.55a3.22,3.22,0,0,1,3.28,3.28v1.09A3.22,3.22,0,0,1,87.42,94H77.59a3.29,3.29,0,0,1-3.28-3.28V88.77H66.66v1.91a11,11,0,0,0,10.92,10.92h9.83A10.89,10.89,0,0,0,98.34,90.69V89.59a10.82,10.82,0,0,0-2.62-7.1,10.83,10.83,0,0,0,2.62-7.1V74.3Z"/><path d="M57.55,53.71H161.12V3.84H57.55V53.71ZM1.92,0H165V57.55H111.28v53.71H53.73V57.55H0V0ZM53.71,3.84H3.84V53.71H53.71V3.84Zm53.73,53.71H57.57v49.87h49.87V57.55Z"/><path d="M70.51,6.94c-.38,0-.74,0-1.11,0-1.94,0-2.67.8-2.67,2.59v.41H65.47v1.45h1.27v6.33h2.14V11.33h1.51V9.89H68.85V9.27c0-.65.18-.8.95-.8l.71,0V6.94Zm7.6,10.73a5.26,5.26,0,0,1-.27-2.11V12.19c0-2.17-1.82-2.53-3.39-2.53-2.24,0-3.48.89-3.6,2.62h2c.15-.89.56-1.19,1.54-1.19s1.4.33,1.4,1-.51.75-1.9.93c-1.54.2-3.39.44-3.39,2.47,0,1.46,1.05,2.35,2.77,2.35a3.53,3.53,0,0,0,2.52-1,2.31,2.31,0,0,0,.15.75Zm-2.33-3.78v.87a1.69,1.69,0,0,1-1.9,1.73c-.74,0-1.17-.39-1.17-1,0-.95.83-1,1.57-1.16a4.08,4.08,0,0,0,1.51-.41Zm9.9-1.73c-.06-1.81-1.6-2.49-3.37-2.49-2.17,0-3.4.86-3.4,2.38,0,1.85,1.81,2.06,3.19,2.38,1.11.26,1.75.38,1.75,1s-.54,1-1.42,1-1.58-.36-1.66-1.3h-2c0,2,1.7,2.76,3.65,2.76,2.21,0,3.56-1,3.56-2.64s-1.63-2.12-3-2.41c-1.24-.26-1.9-.35-1.9-1,0-.48.45-.77,1.2-.77s1.36.26,1.48,1.07ZM88.9,6.94H86.79V17.66H88.9v-4c0-1.14.26-2.26,1.67-2.26,1.14,0,1.37.69,1.37,1.64v4.58h2.14V12.57c0-1.81-.83-2.88-2.73-2.88a2.85,2.85,0,0,0-2.46,1.24v-4Zm8.59,0H95.35V8.74h2.14V6.94Zm0,3H95.35v7.77h2.14V9.89Zm5.09-.23a3.85,3.85,0,0,0-4.05,4.11,4,4,0,1,0,8,0,3.82,3.82,0,0,0-4-4.11Zm-.06,1.63c1.19,0,1.9.92,1.9,2.47s-.69,2.53-1.87,2.53-1.88-.92-1.88-2.52.71-2.49,1.85-2.49Zm12.34,6.37v-5.2a2.51,2.51,0,0,0-2.7-2.79,3.08,3.08,0,0,0-2.58,1.3V9.89h-2v7.77h2.12V13.49c0-1.13.41-2,1.69-2s1.33.72,1.33,1.69v4.53Zm-40,10H73a3.55,3.55,0,0,1-.39,1.27L71.2,27.22a3.06,3.06,0,0,0,1.87-2.71A2.6,2.6,0,0,0,70.29,22a2.63,2.63,0,0,0-2.89,2.52,3.45,3.45,0,0,0,1,2.23A3.6,3.6,0,0,0,66,29.88,3.22,3.22,0,0,0,69.49,33a4.11,4.11,0,0,0,3-1.28l.89,1.05H76L73.8,30.27a5.07,5.07,0,0,0,1-2.64Zm-4.67-1.69a2.77,2.77,0,0,1-.86-1.55.94.94,0,0,1,1-.93,1,1,0,0,1,1,1c0,.59-.32,1-1.11,1.49Zm-.65,2.14,1.85,2.24a2.33,2.33,0,0,1-1.78.93,1.48,1.48,0,0,1-1.52-1.45c0-.69.45-1.22,1.45-1.73Zm18.44,4.73V22.09H85.82V26a2.74,2.74,0,0,0-2.36-1.17c-2.06,0-3.4,1.61-3.4,4.07S81.42,33,83.58,33a2.59,2.59,0,0,0,2.35-1.2v1Zm-2-3.9c0,1.52-.68,2.4-1.85,2.4s-1.84-.9-1.84-2.41.68-2.38,1.84-2.38,1.85.89,1.85,2.39Zm10.56,1.49h-2a1.56,1.56,0,0,1-1.58,1.13c-1.14,0-1.79-.72-1.82-2.06h5.57v-.21c0-2.73-1.49-4.44-3.84-4.44A3.9,3.9,0,0,0,88.84,29a3.8,3.8,0,0,0,4,4.07,3.58,3.58,0,0,0,3.65-2.64Zm-2-2.29H91a1.74,1.74,0,0,1,1.73-1.75,1.69,1.69,0,0,1,1.67,1.75Zm9.54-.81c-.06-1.81-1.6-2.49-3.37-2.49-2.17,0-3.4.86-3.4,2.38,0,1.85,1.81,2.06,3.19,2.38,1.11.26,1.75.38,1.75,1s-.54,1-1.42,1-1.58-.36-1.66-1.3H97c0,2,1.7,2.76,3.65,2.76,2.21,0,3.56-1,3.56-2.64s-1.63-2.12-3-2.41c-1.24-.26-1.9-.35-1.9-1,0-.48.45-.77,1.21-.77s1.36.26,1.48,1.07Zm3.3-5.21h-2.14V23.9h2.14V22.09Zm0,3h-2.14v7.77h2.14V25ZM116,25h-2v1a2.48,2.48,0,0,0-2.32-1.25c-2,0-3.4,1.57-3.4,3.93s1.3,3.83,3.31,3.83a2.74,2.74,0,0,0,2.38-1.2l0,.87c0,1.25-.29,2-1.72,2-.93,0-1.4-.3-1.57-1H108.5c.21,1.63,1.4,2.43,3.65,2.43,2.53,0,3.83-1.11,3.83-3.71V25Zm-3.84,1.45c1.13,0,1.81.83,1.81,2.21S113.25,31,112.15,31s-1.81-.87-1.81-2.24.66-2.26,1.79-2.26Zm12.49,6.33v-5.2a2.51,2.51,0,0,0-2.7-2.79,3.07,3.07,0,0,0-2.58,1.3V25h-2v7.77h2.12V28.65c0-1.13.41-2,1.69-2s1.33.72,1.33,1.69v4.53ZM73.69,45H71.63A1.61,1.61,0,0,1,70,46.55c-1.14,0-1.81-.89-1.81-2.44s.69-2.53,1.85-2.53a1.47,1.47,0,0,1,1.54,1.34h2.09C73.46,41.11,72.08,40,70,40a3.85,3.85,0,0,0-4,4.17,3.76,3.76,0,0,0,4,4A3.48,3.48,0,0,0,73.69,45Zm8.12.59h-2a1.55,1.55,0,0,1-1.58,1.13c-1.14,0-1.79-.72-1.82-2.06h5.57v-.21c0-2.73-1.49-4.44-3.84-4.44a3.9,3.9,0,0,0-3.9,4.16,3.8,3.8,0,0,0,4,4.07,3.58,3.58,0,0,0,3.65-2.64Zm-2-2.29h-3.4a1.74,1.74,0,0,1,1.73-1.75,1.69,1.69,0,0,1,1.67,1.75ZM90.06,48v-5.2A2.51,2.51,0,0,0,87.36,40a3.08,3.08,0,0,0-2.58,1.3V40.2h-2V48h2.12V43.8c0-1.13.41-2,1.69-2s1.33.72,1.33,1.69V48Zm5.47-7.77H93.95V37.85H91.82V40.2h-1.3v1.45h1.3v4c0,1.9.57,2.38,2.41,2.38.48,0,.71,0,1.3-.06V46.38a4.9,4.9,0,0,1-.65,0c-.92,0-.93-.35-.93-1.1V41.65h1.58V40.2Zm5.65-.14a2.86,2.86,0,0,0-.47,0,2.68,2.68,0,0,0-2.52,1.61V40.2h-2V48H98.3V44.42c0-1.42.57-2.47,2-2.47a3.79,3.79,0,0,1,.83.09v-2Zm7.43,5.5h-2A1.56,1.56,0,0,1,105,46.7c-1.14,0-1.79-.72-1.82-2.06h5.57v-.21c0-2.73-1.49-4.44-3.84-4.44a3.9,3.9,0,0,0-3.9,4.16,3.8,3.8,0,0,0,4,4.07,3.58,3.58,0,0,0,3.65-2.64Zm-2-2.29h-3.4a1.74,1.74,0,0,1,1.73-1.75,1.69,1.69,0,0,1,1.67,1.75Z"/></svg>